<svg version="1.1" viewBox="0 0 96 96" xmlns="http://www.w3.org/2000/svg" xmlns:xlink="http://www.w3.org/1999/xlink" id="Icons_Medicine" overflow="hidden"><g><path d=" M 64 68 L 64 60 L 30 60 C 28.9 60 28 59.1 28 58 L 28 38 C 28 36.9 28.9 36 30 36 L 64 36 L 64 28 C 64 25.8 62.2 24 60 24 L 56.5 24 C 56.2 24 56 23.8 56 23.5 L 56 20.5 C 56 20.2 56.2 20 56.5 20 L 59 20 C 59.6 20 60 19.6 60 19 L 60 12 C 60 9.8 58.2 8 56 8 L 28 8 C 25.8 8 24 9.8 24 12 L 24 19 C 24 19.6 24.4 20 25 20 L 27.5 20 C 27.8 20 28 20.2 28 20.5 L 28 23.5 C 28 23.8 27.8 24 27.5 24 L 24 24 C 21.8 24 20 25.8 20 28 L 20 76 C 20 78.2 21.8 80 24 80 L 38 80 C 38 73.4 43.4 68 50 68 L 64 68 Z" stroke="none" stroke-width="1" stroke-dasharray="" stroke-dashoffset="1" fill="#002060" fill-opacity="1"/><path d=" M 32 41 L 32 55 C 32 55.6 32.4 56 33 56 L 64 56 L 64 40 L 33 40 C 32.4 40 32 40.4 32 41 Z" stroke="none" stroke-width="1" stroke-dasharray="" stroke-dashoffset="1" fill="#002060" fill-opacity="1"/><path d=" M 59 84 L 50 84 C 47.8 84 46 82.2 46 80 C 46 77.8 47.8 76 50 76 L 59 76 L 59 84 Z M 68 72 L 50 72 C 45.6 72 42 75.6 42 80 C 42 84.4 45.6 88 50 88 L 68 88 C 72.4 88 76 84.4 76 80 C 76 75.6 72.4 72 68 72 Z" stroke="none" stroke-width="1" stroke-dasharray="" stroke-dashoffset="1" fill="#002060" fill-opacity="1"/></g></svg>