<svg version="1.1" viewBox="0 0 96 96" xmlns="http://www.w3.org/2000/svg" xmlns:xlink="http://www.w3.org/1999/xlink" id="Icons_Bike" overflow="hidden"><g><circle cx="59" cy="15.5" r="8" stroke="none" stroke-width="1" stroke-dasharray="" stroke-dashoffset="1" fill="#002060" fill-opacity="1"/><path d=" M 23 54.5 C 13.6 54.5 6 62.1 6 71.5 C 6 80.9 13.6 88.5 23 88.5 C 32.4 88.5 40 80.9 40 71.5 C 40 62.1 32.4 54.5 23 54.5 Z M 23 84.5 C 15.8 84.5 10 78.7 10 71.5 C 10 64.3 15.8 58.5 23 58.5 C 30.2 58.5 36 64.3 36 71.5 C 36 78.7 30.2 84.5 23 84.5 Z" stroke="none" stroke-width="1" stroke-dasharray="" stroke-dashoffset="1" fill="#002060" fill-opacity="1"/><path d=" M 73 54.5 C 63.6 54.5 56 62.1 56 71.5 C 56 80.9 63.6 88.5 73 88.5 C 82.4 88.5 90 80.9 90 71.5 C 90 62.1 82.4 54.5 73 54.5 Z M 73 84.5 C 65.8 84.5 60 78.7 60 71.5 C 60 64.3 65.8 58.5 73 58.5 C 80.2 58.5 86 64.3 86 71.5 C 86 78.7 80.2 84.5 73 84.5 Z" stroke="none" stroke-width="1" stroke-dasharray="" stroke-dashoffset="1" fill="#002060" fill-opacity="1"/><path d=" M 55.7 39.8 C 56.5 40.6 57.5 41 58.5 41 L 70 41 C 72.2 41 74 39.2 74 37 C 74 34.8 72.2 33 70 33 L 60.2 33 C 60.2 33 48.8 21.5 48.6 21.4 C 46.1 19.2 42.3 19.5 40.1 22 L 26.5 37.5 C 24.3 40 24.6 43.8 27 46 C 27.6 46.5 28.2 46.9 28.9 47.1 L 28.9 47.1 L 43.9 53.1 L 43.9 71.4 C 43.9 73.6 45.7 75.4 47.9 75.4 C 50.1 75.4 51.9 73.6 51.9 71.4 L 51.9 50.4 C 51.9 48.8 50.9 47.3 49.5 46.7 L 38.4 42 L 47.5 31.6 L 55.7 39.8 Z" stroke="none" stroke-width="1" stroke-dasharray="" stroke-dashoffset="1" fill="#002060" fill-opacity="1"/></g></svg>