<svg version="1.1" viewBox="0 0 96 96" xmlns="http://www.w3.org/2000/svg" xmlns:xlink="http://www.w3.org/1999/xlink" id="Icons_Balloons" overflow="hidden"><path d=" M 48.7 62.8 C 43 56.3 39.6 45.2 42.4 33.4 C 42.5 33.2 42.5 32.9 42.6 32.7 C 38.1 28.7 32.2 27.2 26.3 28.6 C 16.1 31 9.7 41.2 12.6 53.6 C 15.3 65 25.2 75.9 34.7 75.6 L 34.8 75.9 L 34.2 82.2 L 42 80.4 L 38.7 75 L 38.7 74.9 C 43.4 73.1 46.8 68.5 48.7 62.8 Z" stroke="none" stroke-width="1" stroke-dasharray="" stroke-dashoffset="1" fill="#002060" fill-opacity="1"/><path d=" M 55.3 16 C 50.7 9.1 43 5.9 35.3 7.7 C 27 9.7 21.2 16.9 21 26.2 C 22.4 25.5 23.9 25 25.5 24.7 C 27.2 24.3 28.9 24.1 30.7 24.1 C 35.7 24.1 40.3 25.8 44.1 28.7 C 46.4 23 50.3 18.6 55.3 16 Z" stroke="none" stroke-width="1" stroke-dasharray="" stroke-dashoffset="1" fill="#002060" fill-opacity="1"/><path d=" M 69.7 18 C 59.5 15.6 49.3 21.9 46.4 34.4 C 43.6 46.2 48.1 60.8 57.3 64.3 L 57.3 64.4 L 54 69.8 L 61.8 71.6 L 61.2 65.3 L 61.3 65 C 70.8 65.2 80.8 54.4 83.4 43 C 86.2 30.6 79.9 20.4 69.7 18 Z" stroke="none" stroke-width="1" stroke-dasharray="" stroke-dashoffset="1" fill="#002060" fill-opacity="1"/><path d=" M 55.3 88.7 C 56.6 86 58.3 81.6 59 76 C 59.1 74.9 58.4 73.9 57.3 73.8 C 56.2 73.6 55.2 74.4 55.1 75.5 C 54.2 82.1 51.9 87 50.9 88.8 L 55.3 88.7 Z" stroke="none" stroke-width="1" stroke-dasharray="" stroke-dashoffset="1" fill="#002060" fill-opacity="1"/><path d=" M 38.8 88.7 L 43.1 88.7 C 42.3 86.6 42 85.3 42 85.3 C 41.8 84.2 40.7 83.5 39.6 83.8 C 38.5 84 37.8 85.1 38.1 86.2 C 38.1 86.3 38.3 87.2 38.8 88.7 Z" stroke="none" stroke-width="1" stroke-dasharray="" stroke-dashoffset="1" fill="#002060" fill-opacity="1"/></svg>