<svg version="1.1" viewBox="0 0 96 96" xmlns="http://www.w3.org/2000/svg" xmlns:xlink="http://www.w3.org/1999/xlink" id="Icons_Newspaper" overflow="hidden"><path d=" M 76 74 C 76 75.1 75.1 76 74 76 C 72.9 76 72 75.1 72 74 L 72 26 L 76 26 L 76 74 Z M 22 76 C 20.9 76 20 75.1 20 74 L 20 20 L 66 20 L 66 74 C 66 74.7 66.1 75.4 66.3 76 L 22 76 Z M 72 20 L 72 14 L 14 14 L 14 74 C 14 78.4 17.6 82 22 82 L 74 82 C 78.4 82 82 78.4 82 74 L 82 20 L 72 20 Z" stroke="none" stroke-width="1" stroke-dasharray="" stroke-dashoffset="1" fill="#002060" fill-opacity="1"/><rect x="24" y="26" width="38" height="4" stroke="none" stroke-width="1" stroke-dasharray="" stroke-dashoffset="1" fill="#002060" fill-opacity="1"/><rect x="45" y="34" width="17" height="4" stroke="none" stroke-width="1" stroke-dasharray="" stroke-dashoffset="1" fill="#002060" fill-opacity="1"/><rect x="45" y="42" width="17" height="4" stroke="none" stroke-width="1" stroke-dasharray="" stroke-dashoffset="1" fill="#002060" fill-opacity="1"/><rect x="24" y="34" width="17" height="12" stroke="none" stroke-width="1" stroke-dasharray="" stroke-dashoffset="1" fill="#002060" fill-opacity="1"/><rect x="24" y="50" width="38" height="4" stroke="none" stroke-width="1" stroke-dasharray="" stroke-dashoffset="1" fill="#002060" fill-opacity="1"/><rect x="45" y="58" width="17" height="12" stroke="none" stroke-width="1" stroke-dasharray="" stroke-dashoffset="1" fill="#002060" fill-opacity="1"/><rect x="24" y="58" width="17" height="4" stroke="none" stroke-width="1" stroke-dasharray="" stroke-dashoffset="1" fill="#002060" fill-opacity="1"/><rect x="24" y="66" width="17" height="4" stroke="none" stroke-width="1" stroke-dasharray="" stroke-dashoffset="1" fill="#002060" fill-opacity="1"/></svg>